<mxfile host="app.diagrams.net" modified="2023-06-01T22:44:35.206Z" agent="Mozilla/5.0 (Windows NT 10.0; Win64; x64) AppleWebKit/537.36 (KHTML, like Gecko) Chrome/113.0.0.0 Safari/537.36" etag="7LCzg-g7H9qC9qhaURs9" version="21.3.6" type="device">
  <diagram name="Page-1" id="h2az1PJBZOI6nuvOkSZH">
    <mxGraphModel dx="1120" dy="452" grid="1" gridSize="10" guides="1" tooltips="1" connect="1" arrows="1" fold="1" page="1" pageScale="1.5" pageWidth="827" pageHeight="1169" math="0" shadow="0">
      <root>
        <mxCell id="0" />
        <mxCell id="1" parent="0" />
        <mxCell id="__AV13l0IPas59AyhZhi-1" value="" style="group" parent="1" vertex="1" connectable="0">
          <mxGeometry x="120" y="50" width="755" height="550" as="geometry" />
        </mxCell>
        <mxCell id="6iotoa25c3et3-7rry5N-1" value="" style="rounded=0;whiteSpace=wrap;html=1;" parent="__AV13l0IPas59AyhZhi-1" vertex="1">
          <mxGeometry x="245" width="510" height="550" as="geometry" />
        </mxCell>
        <mxCell id="6iotoa25c3et3-7rry5N-2" value="&lt;font style=&quot;font-size: 16px;&quot;&gt;&lt;u&gt;Ask Page&lt;/u&gt;&lt;/font&gt;" style="text;html=1;strokeColor=none;fillColor=none;align=center;verticalAlign=middle;whiteSpace=wrap;rounded=0;" parent="__AV13l0IPas59AyhZhi-1" vertex="1">
          <mxGeometry x="360" y="20" width="290" height="30" as="geometry" />
        </mxCell>
        <mxCell id="6iotoa25c3et3-7rry5N-9" style="edgeStyle=orthogonalEdgeStyle;rounded=0;orthogonalLoop=1;jettySize=auto;html=1;exitX=0.5;exitY=1;exitDx=0;exitDy=0;" parent="__AV13l0IPas59AyhZhi-1" source="6iotoa25c3et3-7rry5N-1" target="6iotoa25c3et3-7rry5N-1" edge="1">
          <mxGeometry relative="1" as="geometry" />
        </mxCell>
        <mxCell id="OJ-Wq4iEBlEBgmXfw8F6-1" value="" style="group" parent="__AV13l0IPas59AyhZhi-1" vertex="1" connectable="0">
          <mxGeometry y="90" width="650" height="420" as="geometry" />
        </mxCell>
        <mxCell id="6iotoa25c3et3-7rry5N-3" value="" style="ellipse;whiteSpace=wrap;html=1;" parent="OJ-Wq4iEBlEBgmXfw8F6-1" vertex="1">
          <mxGeometry x="360" width="290" height="110" as="geometry" />
        </mxCell>
        <mxCell id="6iotoa25c3et3-7rry5N-4" value="&lt;font style=&quot;font-size: 16px;&quot;&gt;State question title&lt;/font&gt;" style="text;html=1;strokeColor=none;fillColor=none;align=center;verticalAlign=middle;whiteSpace=wrap;rounded=0;" parent="OJ-Wq4iEBlEBgmXfw8F6-1" vertex="1">
          <mxGeometry x="360" y="40" width="290" height="30" as="geometry" />
        </mxCell>
        <mxCell id="6iotoa25c3et3-7rry5N-5" value="" style="ellipse;whiteSpace=wrap;html=1;" parent="OJ-Wq4iEBlEBgmXfw8F6-1" vertex="1">
          <mxGeometry x="360" y="150" width="290" height="110" as="geometry" />
        </mxCell>
        <mxCell id="6iotoa25c3et3-7rry5N-6" value="&lt;font style=&quot;font-size: 16px;&quot;&gt;Type Question out in the question body area&lt;br&gt;&lt;/font&gt;" style="text;html=1;strokeColor=none;fillColor=none;align=center;verticalAlign=middle;whiteSpace=wrap;rounded=0;" parent="OJ-Wq4iEBlEBgmXfw8F6-1" vertex="1">
          <mxGeometry x="370" y="180" width="270" height="50" as="geometry" />
        </mxCell>
        <mxCell id="6iotoa25c3et3-7rry5N-7" value="" style="ellipse;whiteSpace=wrap;html=1;" parent="OJ-Wq4iEBlEBgmXfw8F6-1" vertex="1">
          <mxGeometry x="360" y="310" width="290" height="110" as="geometry" />
        </mxCell>
        <mxCell id="6iotoa25c3et3-7rry5N-8" value="&lt;font style=&quot;font-size: 16px;&quot;&gt;Post Question&amp;nbsp;&lt;br&gt;&lt;/font&gt;" style="text;html=1;strokeColor=none;fillColor=none;align=center;verticalAlign=middle;whiteSpace=wrap;rounded=0;" parent="OJ-Wq4iEBlEBgmXfw8F6-1" vertex="1">
          <mxGeometry x="360" y="350" width="290" height="30" as="geometry" />
        </mxCell>
        <mxCell id="6iotoa25c3et3-7rry5N-11" value="User" style="shape=umlActor;verticalLabelPosition=bottom;verticalAlign=top;html=1;outlineConnect=0;fontSize=16;" parent="OJ-Wq4iEBlEBgmXfw8F6-1" vertex="1">
          <mxGeometry y="140" width="50" height="130" as="geometry" />
        </mxCell>
        <mxCell id="6iotoa25c3et3-7rry5N-12" value="" style="endArrow=none;html=1;rounded=0;entryX=0;entryY=0.5;entryDx=0;entryDy=0;" parent="OJ-Wq4iEBlEBgmXfw8F6-1" source="6iotoa25c3et3-7rry5N-11" target="6iotoa25c3et3-7rry5N-4" edge="1">
          <mxGeometry width="50" height="50" relative="1" as="geometry">
            <mxPoint x="440" y="110" as="sourcePoint" />
            <mxPoint x="140" y="-20" as="targetPoint" />
            <Array as="points">
              <mxPoint x="210" y="120" />
            </Array>
          </mxGeometry>
        </mxCell>
        <mxCell id="6iotoa25c3et3-7rry5N-13" value="" style="endArrow=none;html=1;rounded=0;entryX=0;entryY=0.5;entryDx=0;entryDy=0;" parent="OJ-Wq4iEBlEBgmXfw8F6-1" target="6iotoa25c3et3-7rry5N-6" edge="1">
          <mxGeometry width="50" height="50" relative="1" as="geometry">
            <mxPoint x="50" y="220" as="sourcePoint" />
            <mxPoint x="360" y="81" as="targetPoint" />
            <Array as="points" />
          </mxGeometry>
        </mxCell>
        <mxCell id="6iotoa25c3et3-7rry5N-17" value="" style="endArrow=none;html=1;rounded=0;entryX=0;entryY=0.5;entryDx=0;entryDy=0;exitX=1;exitY=1;exitDx=0;exitDy=0;exitPerimeter=0;" parent="OJ-Wq4iEBlEBgmXfw8F6-1" source="6iotoa25c3et3-7rry5N-11" target="6iotoa25c3et3-7rry5N-8" edge="1">
          <mxGeometry width="50" height="50" relative="1" as="geometry">
            <mxPoint x="440" y="240" as="sourcePoint" />
            <mxPoint x="490" y="190" as="targetPoint" />
          </mxGeometry>
        </mxCell>
      </root>
    </mxGraphModel>
  </diagram>
</mxfile>
